<svg xmlns="http://www.w3.org/2000/svg" xmlns:xlink="http://www.w3.org/1999/xlink" width="12" height="16" preserveAspectRatio="xMidYMid meet" viewBox="0 0 376 384" style="-ms-transform: rotate(360deg); -webkit-transform: rotate(360deg); transform: rotate(360deg);"><path d="M267 235l106 106-32 32-106-106v-17l-6-6q-39 33-90 33-58 0-98.5-40.5T0 138.5t40.5-98 98-40.5 98 40.5T277 139q0 51-33 90l6 6h17zm-128 0q40 0 68-28t28-68-28-68-68-28-68 28-28 68 28 68 68 28z" fill="#FFFFFF"/><rect x="0" y="0" width="376" height="384" fill="rgba(0, 0, 0, 0)" /></svg>